<svg xmlns="http://www.w3.org/2000/svg" viewBox="0 0 951.36 950.73"><defs><style>.cls-1{fill:#2d333b;}.cls-2{fill:#a9c1de;}.cls-3{fill:#bb9d84;}.cls-4{fill:#ceecf9;}.cls-5{fill:#363427;}.cls-6{fill:#fbd902;}.cls-7{fill:#fcfcfb;}.cls-8{fill:#fcfaee;}.cls-9{fill:#f1f1ef;}</style></defs><title>logofindprice_1</title><g id="Livello_2" data-name="Livello 2"><g id="Livello_1-2" data-name="Livello 1"><path class="cls-1" d="M388.22,0c8.13,3.82,17.1,3.51,25.67,5.06,120.26,21.65,210,86.29,262.6,196.16,60.09,125.47,47.92,247.61-30.37,362.69-5.53,8.12-6.52,12.59,1.46,19.36,10.58,9,20.26,19.13,29.61,29.44,4.92,5.43,7.89,4.93,12.15-.28,3.7-4.53,8.14-8.48,12.35-12.58,7.23-7.06,14.52-7.41,22.24-1.06,1.9,1.56,3.55,3.44,5.3,5.19,65.45,65.45,131.18,130.62,196.21,196.47,26.13,26.47,32.43,58.88,19.24,93.35-12.16,31.79-36.25,50.8-70.41,55.87-29.71,4.4-54.84-5-75.84-26Q701.19,826.52,604.05,729.3c-13.21-13.21-13.24-18.54-.22-31.49,14.64-14.56,14.64-14.56.21-29-8.1-8.1-16.52-15.91-24.17-24.41-4.31-4.79-7.21-4.51-12.13-.84-38.1,28.46-80.32,48.56-126.6,59.37-101.34,23.68-196.37,7.3-282.75-50.31-77.8-51.88-127.43-124.7-149-216-3.19-13.5-4.92-27.35-7.33-41-.25-1.47-.08-3.16-2.08-3.61V321.35c3.6-3.55,3-8.39,3.57-12.72,3.84-31.45,11.62-62,24.69-90.73C81.85,100.35,171.58,28.27,299.48,5c7.32-1.33,15.27-.4,21.87-5ZM359,683.52c181-2.08,325.74-148.47,324.32-328.74C681.88,171.24,533.75,29,355.24,30,171.36,31,28.72,179.64,30,358.53,31.3,542.2,179.92,684,359,683.52Zm398.75-7.88c-1.9,1.67-3.57,3-5.06,4.45-24.08,24-48.05,48.17-72.28,72.06-4.12,4.06-4.83,6.47-.26,11Q731.64,814,782.54,865.46c4,4,6.26,4.18,10.31.07q36.15-36.69,72.84-72.81c4.44-4.36,3.26-6.6-.47-10.31q-51.33-51-102.41-102.29C761.33,678.64,759.67,677.33,757.76,675.64Zm93.5,245.72c31.68-.23,52.1-11.75,61.87-29.87,15.46-28.64,9-56.83-18.61-79.87-3.18-2.65-4.72-1.27-6.85.86Q849.93,850.25,812.15,888c-1.87,1.88-3.3,3.42-.86,6.16C824.82,909.39,839.94,921.56,851.26,921.36Zm-115.7-268a15.45,15.45,0,0,0-1.51-2.07c-6.1-6.15-12.28-12.23-18.35-18.41-2.63-2.68-4.31-.82-6.13,1Q671.83,671.65,634,709.34c-2.84,2.82-3,4.76,0,7.55,5.63,5.3,11.13,10.76,16.41,16.41,2.94,3.14,4.89,2.32,7.54-.35q37.32-37.51,74.76-74.89C733.94,656.82,735.81,655.84,735.56,653.4Zm-97,9.18c1.59-1.33,2.83-2.22,3.91-3.28,5.49-5.44,10.78-11.08,16.47-16.31,3.57-3.29,3.42-5.55-.06-8.91q-17-16.43-33.45-33.43c-3.18-3.26-5.47-4-8.9-.31-5.21,5.69-10.74,11.11-16.38,16.39-3.25,3-3.07,5.15.1,8.23,11.51,11.21,22.76,22.7,34.14,34C635.63,660.24,637.05,661.29,638.56,662.58Z"/><path class="cls-2" d="M359,683.52C179.92,684,31.3,542.2,30,358.53,28.72,179.64,171.36,31,355.24,30c178.51-1,326.64,141.25,328.09,324.79C684.75,535.05,540,681.44,359,683.52ZM357.08,59.46C193.9,58.88,60.34,191.94,59.46,356c-.88,163,132.07,296.66,296.29,297.86,163.12,1.18,297.81-133,298.09-297C654.11,193.51,520.92,60,357.08,59.46Z"/><path class="cls-3" d="M757.76,675.64c1.91,1.69,3.57,3,5,4.48Q814,731.29,865.22,782.41c3.73,3.71,4.91,6,.47,10.31Q829,828.8,792.85,865.53c-4.05,4.11-6.35,3.93-10.31-.07q-51-51.39-102.38-102.32c-4.57-4.52-3.86-6.93.26-11,24.23-23.89,48.2-48,72.28-72.06C754.19,678.61,755.86,677.31,757.76,675.64Z"/><path class="cls-2" d="M851.26,921.36c-11.32.2-26.44-12-40-27.24-2.44-2.74-1-4.28.86-6.16q37.79-37.71,75.52-75.48c2.13-2.13,3.67-3.51,6.85-.86,27.61,23,34.07,51.23,18.61,79.87C903.36,909.61,882.94,921.13,851.26,921.36Z"/><path class="cls-2" d="M735.56,653.4c.25,2.44-1.62,3.42-2.86,4.66Q695.33,695.52,657.94,733c-2.65,2.67-4.6,3.49-7.54.35-5.28-5.65-10.78-11.11-16.41-16.41-3-2.79-2.79-4.73,0-7.55q37.88-37.61,75.53-75.43c1.82-1.81,3.5-3.67,6.13-1,6.07,6.18,12.25,12.26,18.35,18.41A15.45,15.45,0,0,1,735.56,653.4Z"/><path class="cls-2" d="M638.56,662.58c-1.51-1.29-2.93-2.34-4.17-3.57-11.38-11.35-22.63-22.84-34.14-34-3.17-3.08-3.35-5.2-.1-8.23,5.64-5.28,11.17-10.7,16.38-16.39,3.43-3.74,5.72-3,8.9.31q16.5,17,33.45,33.43c3.48,3.36,3.63,5.62.06,8.91-5.69,5.23-11,10.87-16.47,16.31C641.39,660.36,640.15,661.25,638.56,662.58Z"/><path class="cls-1" d="M357.08,59.46c163.84.57,297,134,296.76,297.39-.28,164-135,298.17-298.09,297C191.53,652.64,58.58,519,59.46,356,60.34,191.94,193.9,58.88,357.08,59.46Zm267,297.23c0-147.15-120.21-267.45-267.42-267.5S89.24,209.39,89.19,356.61s120.2,267.44,267.42,267.5S624.05,503.9,624.11,356.69Z"/><path class="cls-4" d="M624.11,356.69c-.06,147.21-120.36,267.47-267.5,267.42S89.13,503.75,89.19,356.61,209.54,89.13,356.69,89.19,624.16,209.54,624.11,356.69ZM367.41,119.24l-1.86-.08c-15.75-.68-23.34,3.88-23.65,14.19-.29,9.93,6.61,14.69,21.93,15.52,66.32,3.58,120,31.38,160.05,84.54,26.47,35.16,39.25,75.27,40.71,119.14.41,12.4,6.31,19.33,15.66,18.84s14.3-7.66,14-20.24a234.67,234.67,0,0,0-4.39-40.56C568.77,203.42,477,124.56,367.41,119.24Z"/><path class="cls-1" d="M367.41,119.24C477,124.56,568.77,203.42,589.89,310.59a234.67,234.67,0,0,1,4.39,40.56c.27,12.58-4.63,19.75-14,20.24S565,365,564.59,352.55c-1.46-43.87-14.24-84-40.71-119.14-40-53.16-93.73-81-160-84.54-15.32-.83-22.22-5.59-21.93-15.52.31-10.31,7.9-14.87,23.65-14.19Z"/><path class="cls-1" d="M356.65,192.25A164.51,164.51,0,1,1,192.14,356.76,164.38,164.38,0,0,1,356.65,192.25ZM304.06,336.8a48.33,48.33,0,0,0,11.29,15.49,89.41,89.41,0,0,0,17.76,11.64c6.74,3.51,14.18,6.74,22.23,10s13.56,6.73,16.8,10.32S377,392.9,377,399.37v.35c0,5.86-1.57,10.33-4.81,13.56s-7.7,4.82-13.21,4.82c-7.79,0-13.57-2.63-17.77-7.44S335,398.76,335,389.4H293.39c0,16.71,4.81,30.63,14.52,41s23.54,16.45,41.3,18.38v17.41H368.9V448.73c15.49-1.58,27.48-6.74,36.49-15.49,8.66-8.75,13.21-20.3,13.21-34.22,0-8.4-1.31-15.49-4.19-21.26a54.33,54.33,0,0,0-11.64-15.49,82.49,82.49,0,0,0-17.41-11.9c-6.75-3.5-13.92-6.74-21.62-10-7.44-3.24-12.87-6.75-16.45-10.33s-5.17-8.4-5.17-14.53,1.66-10.58,4.55-14.17,7.09-5.17,12.6-5.17c5.87,0,10.68,2.19,13.92,6.74S378,314.23,378,322.63h41.65c0-15.49-4.11-28.44-12.86-38.41s-20.65-16.11-35.53-18.37V246.76H351.57v18.73c-15.49,1.66-28.09,6.83-37.45,15.84s-13.91,20.3-13.91,34.21C300.21,324,301.52,331,304.06,336.8Z"/><path class="cls-5" d="M916.93,908.8a2.16,2.16,0,0,1-.7-.8,1.63,1.63,0,0,1-.13-.37s0,0-.05,0l-.61-.13h-.05l.15-.07.48-.22a0,0,0,0,0,0,0,1.92,1.92,0,0,1,.55-1.16.06.06,0,0,0,0-.07,1.14,1.14,0,0,1-.14-.7,1,1,0,0,1,.51-.74l.22-.1a.05.05,0,0,0,0,0,1.11,1.11,0,0,1,.77-.49,1.89,1.89,0,0,1,2,1,1.37,1.37,0,0,1,.13.63l-.16-.07a1.14,1.14,0,0,0-.16-.57,1.73,1.73,0,0,0-1.64-.84,1,1,0,0,0-.62.26s0,0,0,0h0a1.85,1.85,0,0,1,1.46.54,1.29,1.29,0,0,1,.28.38.36.36,0,0,1,0,.09,1,1,0,0,1-.15,1.12.06.06,0,0,0,0,.05c0,.42.07.84.1,1.26l.12,1.57-.31.05h-.12c0-.1,0-.19,0-.29,0-.43,0-.87-.08-1.3s0-.69-.05-1c0,0,0,0,0,0a1.4,1.4,0,0,1-.64.11s0,0,0,.05,0,.3,0,.46c0,.4,0,.8,0,1.2s0,.51,0,.76a3.17,3.17,0,0,1-.41-.12h0c0-.3,0-.59,0-.89l0-1.49a.07.07,0,0,0,0-.07,1.73,1.73,0,0,1-.73-.48l0,0v.09c0,.47.05.93.07,1.4,0,.24,0,.48,0,.72S916.92,908.66,916.93,908.8Zm.19-4.25h0a.88.88,0,0,0-.35,1.24,1.55,1.55,0,0,0,.85.72,1.53,1.53,0,0,0,.48.11h.26a1.18,1.18,0,0,0,.45-.14.79.79,0,0,0,.35-.35.56.56,0,0,0,.05-.08,1,1,0,0,0-.12-.9.61.61,0,0,1,0-.06,1.64,1.64,0,0,0-1.2-.66,1.15,1.15,0,0,0-.49,0Z"/><path class="cls-6" d="M920,905.38l.16.07.2.12a2.21,2.21,0,0,1,.83.86,1.73,1.73,0,0,1,.19,1,1.89,1.89,0,0,1-.67,1.21,2.65,2.65,0,0,1-1.18.6l-.11,0-.12-1.57c0-.42-.06-.84-.1-1.26a.06.06,0,0,1,0-.05,1,1,0,0,0,.15-1.12.36.36,0,0,0,0-.09,1.77,1.77,0,0,1,.33.08A3.4,3.4,0,0,1,920,905.38Zm.27,2.68a.77.77,0,0,0,.79-.92s0,0,0,0l-1.32.54s0,0,0,.06A.75.75,0,0,0,920.22,908.06Zm-.64-1.3a.27.27,0,0,0,0,.53.26.26,0,0,0,.26-.26A.27.27,0,0,0,919.58,906.76Zm1-.39a.26.26,0,1,0,0,.52.26.26,0,0,0,0-.52Z"/><path class="cls-6" d="M918,909.26c0-.25,0-.51,0-.76s0-.8,0-1.2c0-.16,0-.31,0-.46s0-.05,0-.05a1.4,1.4,0,0,0,.64-.11s0,0,0,0c0,.35,0,.69.05,1s0,.87.08,1.3c0,.1,0,.19,0,.29h-.31a4.09,4.09,0,0,1-.6-.07Z"/><path class="cls-6" d="M916.93,908.8c0-.14,0-.27,0-.41s0-.48,0-.72c0-.47,0-.93-.07-1.4v-.09l0,0a1.73,1.73,0,0,0,.73.48.07.07,0,0,1,0,.07l0,1.49c0,.3,0,.59,0,.89a2.34,2.34,0,0,1-.5-.25Z"/><path class="cls-7" d="M920,905.38a3.4,3.4,0,0,0-.34-.12,1.77,1.77,0,0,0-.33-.08,1.29,1.29,0,0,0-.28-.38,1.85,1.85,0,0,0-1.46-.54h0s0,0,0,0a1,1,0,0,1,.62-.26,1.73,1.73,0,0,1,1.64.84A1.14,1.14,0,0,1,920,905.38Z"/><path class="cls-7" d="M917.34,904.47a1.15,1.15,0,0,1,.49,0,1.64,1.64,0,0,1,1.2.66.61.61,0,0,0,0,.06h0a2.11,2.11,0,0,0-.35,0,2.61,2.61,0,0,0-.4,0l-.18,0-.15,0a1.33,1.33,0,0,0-.34.1l-.16.05s-.07,0-.12,0a.85.85,0,0,1-.09-.24,1,1,0,0,1,0-.46A.63.63,0,0,1,917.34,904.47Z"/><path class="cls-8" d="M918.13,905.18l.18,0a2.61,2.61,0,0,1,.4,0s0,0,0,.07l0,.45c0,.1,0,.2,0,.31s0,.26,0,.38a.33.33,0,0,0,0,.14,1.18,1.18,0,0,1-.45.14h-.26s0-.09,0-.13,0-.3,0-.45,0-.35,0-.52S918.13,905.3,918.13,905.18Z"/><path class="cls-9" d="M918.13,905.18c0,.12,0,.23,0,.35s0,.35,0,.52,0,.3,0,.45,0,.08,0,.13a1.53,1.53,0,0,1-.48-.11s0,0,0,0,0-.22,0-.33,0-.43,0-.64a.67.67,0,0,1,0-.2,1.33,1.33,0,0,1,.34-.1Z"/><path class="cls-8" d="M917.64,905.31a.67.67,0,0,0,0,.2c0,.21,0,.43,0,.64s0,.22,0,.33,0,0,0,0a1.55,1.55,0,0,1-.85-.72l0,0a1.33,1.33,0,0,1,.19-.14l.23-.15a.39.39,0,0,0,.14-.08s.08,0,.12,0Z"/><path class="cls-9" d="M918.79,906.48a.33.33,0,0,1,0-.14c0-.12,0-.25,0-.38s0-.21,0-.31l0-.45s0-.05,0-.07a2.11,2.11,0,0,1,.35,0,1.41,1.41,0,0,0,0,.2v.12c0,.12,0,.24,0,.36s0,.18,0,.27,0,0,0,0A.79.79,0,0,1,918.79,906.48Z"/><path class="cls-7" d="M917.22,905.48l-.23.15a1.33,1.33,0,0,0-.19.14l0,0a.88.88,0,0,1,.35-1.24h0v0a1,1,0,0,0,0,.38A1.3,1.3,0,0,0,917.22,905.48Z"/><path class="cls-9" d="M917.22,905.48a1.3,1.3,0,0,1-.14-.52,1,1,0,0,1,0-.38v0l.22-.08a.63.63,0,0,0-.08.23,1,1,0,0,0,0,.46.85.85,0,0,0,.09.24A.39.39,0,0,1,917.22,905.48Z"/><path class="cls-8" d="M919.14,906.13s0,0,0,0,0-.18,0-.27,0-.24,0-.36v-.12a1.41,1.41,0,0,1,0-.2h0a1,1,0,0,1,.12.9A.56.56,0,0,1,919.14,906.13Z"/><path class="cls-5" d="M920.22,908.06a.75.75,0,0,1-.59-.34s0,0,0-.06l1.32-.54s0,0,0,0A.77.77,0,0,1,920.22,908.06Z"/><path class="cls-5" d="M919.58,906.76a.27.27,0,0,1,.26.27.26.26,0,0,1-.26.26.27.27,0,0,1,0-.53Z"/><path class="cls-5" d="M920.61,906.37a.26.26,0,0,1,0,.52.26.26,0,1,1,0-.52Z"/></g></g></svg>